<svg width="32" height="32" viewBox="0 0 512 512" xmlns="http://www.w3.org/2000/svg">
  <rect width="512" height="512" rx="100" fill="#6d3dc1"/>
  <path d="M 65.148438 215.859375 L 81.007812 225.375 L 150.804688 136.546875 L 184.117188 176.992188 L 311.011719 0.136719 L 385.5625 84.199219 L 415.699219 66.785156 L 517.222656 177.023438 L 571.117188 155.582031 L 713.113281 288.820312 L 567.582031 187.308594 L 511.699219 214.703125 C 511.699219 214.703125 510.898438 308.683594 510.898438 312.648438 C 510.898438 316.613281 414.082031 179.410156 414.082031 179.410156 L 414.082031 278.542969 L 315.398438 49.339844 L 124.363281 332.972656 L 166.761719 225.765625 L 133.746094 252.339844 L 146.972656 192.921875 L 85.773438 259.898438 L 64.351562 245.617188 L 0.910156 288.839844 Z" fill="white" transform="translate(20, 120) scale(0.65)"/>
</svg>
