<svg xmlns="http://www.w3.org/2000/svg" xmlns:xlink="http://www.w3.org/1999/xlink" width="1000" zoomAndPan="magnify" viewBox="0 0 750 749.999995" height="1000" preserveAspectRatio="xMidYMid meet" version="1.0"><defs><clipPath id="1f4a52d203"><path d="M 105.660156 101.910156 L 637.054688 101.910156 L 637.054688 649 L 105.660156 649 Z M 105.660156 101.910156 " clip-rule="nonzero"/></clipPath><clipPath id="58c6df17b1"><path d="M 143.160156 101.910156 L 599.554688 101.910156 C 609.5 101.910156 619.035156 105.859375 626.070312 112.894531 C 633.101562 119.925781 637.054688 129.464844 637.054688 139.410156 L 637.054688 610.589844 C 637.054688 620.535156 633.101562 630.074219 626.070312 637.105469 C 619.035156 644.140625 609.5 648.089844 599.554688 648.089844 L 143.160156 648.089844 C 133.210938 648.089844 123.675781 644.140625 116.640625 637.105469 C 109.609375 630.074219 105.660156 620.535156 105.660156 610.589844 L 105.660156 139.410156 C 105.660156 129.464844 109.609375 119.925781 116.640625 112.894531 C 123.675781 105.859375 133.210938 101.910156 143.160156 101.910156 Z M 143.160156 101.910156 " clip-rule="nonzero"/></clipPath><clipPath id="07226bb6d0"><path d="M 0.660156 0.910156 L 532.054688 0.910156 L 532.054688 546.835938 L 0.660156 546.835938 Z M 0.660156 0.910156 " clip-rule="nonzero"/></clipPath><clipPath id="7addf29139"><path d="M 38.160156 0.910156 L 494.554688 0.910156 C 504.5 0.910156 514.035156 4.859375 521.070312 11.894531 C 528.101562 18.925781 532.054688 28.464844 532.054688 38.410156 L 532.054688 509.589844 C 532.054688 519.535156 528.101562 529.074219 521.070312 536.105469 C 514.035156 543.140625 504.5 547.089844 494.554688 547.089844 L 38.160156 547.089844 C 28.210938 547.089844 18.675781 543.140625 11.640625 536.105469 C 4.609375 529.074219 0.660156 519.535156 0.660156 509.589844 L 0.660156 38.410156 C 0.660156 28.464844 4.609375 18.925781 11.640625 11.894531 C 18.675781 4.859375 28.210938 0.910156 38.160156 0.910156 Z M 38.160156 0.910156 " clip-rule="nonzero"/></clipPath><linearGradient x1="0.00000000924961" gradientTransform="matrix(2.075761, 0, 0, 2.075761, 0.658298, 0.895594)" y1="131.561996" x2="255.999995" gradientUnits="userSpaceOnUse" y2="131.561996" id="e24014bfe7"><stop stop-opacity="1" stop-color="rgb(42.749023%, 23.919678%, 75.689697%)" offset="0"/><stop stop-opacity="1" stop-color="rgb(42.89856%, 24.060059%, 75.866699%)" offset="0.015625"/><stop stop-opacity="1" stop-color="rgb(43.199158%, 24.34082%, 76.222229%)" offset="0.03125"/><stop stop-opacity="1" stop-color="rgb(43.499756%, 24.623108%, 76.576233%)" offset="0.046875"/><stop stop-opacity="1" stop-color="rgb(43.798828%, 24.905396%, 76.931763%)" offset="0.0625"/><stop stop-opacity="1" stop-color="rgb(44.099426%, 25.187683%, 77.287292%)" offset="0.078125"/><stop stop-opacity="1" stop-color="rgb(44.400024%, 25.468445%, 77.642822%)" offset="0.09375"/><stop stop-opacity="1" stop-color="rgb(44.699097%, 25.750732%, 77.998352%)" offset="0.109375"/><stop stop-opacity="1" stop-color="rgb(44.999695%, 26.03302%, 78.353882%)" offset="0.125"/><stop stop-opacity="1" stop-color="rgb(45.300293%, 26.315308%, 78.709412%)" offset="0.140625"/><stop stop-opacity="1" stop-color="rgb(45.600891%, 26.596069%, 79.063416%)" offset="0.15625"/><stop stop-opacity="1" stop-color="rgb(45.899963%, 26.878357%, 79.418945%)" offset="0.171875"/><stop stop-opacity="1" stop-color="rgb(46.200562%, 27.160645%, 79.774475%)" offset="0.1875"/><stop stop-opacity="1" stop-color="rgb(46.50116%, 27.441406%, 80.130005%)" offset="0.203125"/><stop stop-opacity="1" stop-color="rgb(46.800232%, 27.723694%, 80.485535%)" offset="0.21875"/><stop stop-opacity="1" stop-color="rgb(47.10083%, 28.005981%, 80.841064%)" offset="0.234375"/><stop stop-opacity="1" stop-color="rgb(47.401428%, 28.288269%, 81.196594%)" offset="0.25"/><stop stop-opacity="1" stop-color="rgb(47.702026%, 28.569031%, 81.550598%)" offset="0.265625"/><stop stop-opacity="1" stop-color="rgb(48.001099%, 28.851318%, 81.906128%)" offset="0.28125"/><stop stop-opacity="1" stop-color="rgb(48.301697%, 29.133606%, 82.261658%)" offset="0.296875"/><stop stop-opacity="1" stop-color="rgb(48.602295%, 29.415894%, 82.617188%)" offset="0.3125"/><stop stop-opacity="1" stop-color="rgb(48.901367%, 29.696655%, 82.972717%)" offset="0.328125"/><stop stop-opacity="1" stop-color="rgb(49.201965%, 29.978943%, 83.328247%)" offset="0.34375"/><stop stop-opacity="1" stop-color="rgb(49.502563%, 30.26123%, 83.683777%)" offset="0.359375"/><stop stop-opacity="1" stop-color="rgb(49.801636%, 30.541992%, 84.037781%)" offset="0.375"/><stop stop-opacity="1" stop-color="rgb(50.102234%, 30.82428%, 84.393311%)" offset="0.390625"/><stop stop-opacity="1" stop-color="rgb(50.402832%, 31.106567%, 84.74884%)" offset="0.40625"/><stop stop-opacity="1" stop-color="rgb(50.70343%, 31.388855%, 85.10437%)" offset="0.421875"/><stop stop-opacity="1" stop-color="rgb(51.002502%, 31.669617%, 85.4599%)" offset="0.4375"/><stop stop-opacity="1" stop-color="rgb(51.303101%, 31.951904%, 85.81543%)" offset="0.453125"/><stop stop-opacity="1" stop-color="rgb(51.603699%, 32.234192%, 86.170959%)" offset="0.46875"/><stop stop-opacity="1" stop-color="rgb(51.902771%, 32.516479%, 86.524963%)" offset="0.484375"/><stop stop-opacity="1" stop-color="rgb(52.203369%, 32.797241%, 86.880493%)" offset="0.5"/><stop stop-opacity="1" stop-color="rgb(52.503967%, 33.079529%, 87.236023%)" offset="0.515625"/><stop stop-opacity="1" stop-color="rgb(52.804565%, 33.361816%, 87.591553%)" offset="0.53125"/><stop stop-opacity="1" stop-color="rgb(53.103638%, 33.644104%, 87.947083%)" offset="0.546875"/><stop stop-opacity="1" stop-color="rgb(53.404236%, 33.924866%, 88.302612%)" offset="0.5625"/><stop stop-opacity="1" stop-color="rgb(53.704834%, 34.207153%, 88.658142%)" offset="0.578125"/><stop stop-opacity="1" stop-color="rgb(54.003906%, 34.489441%, 89.012146%)" offset="0.59375"/><stop stop-opacity="1" stop-color="rgb(54.304504%, 34.770203%, 89.367676%)" offset="0.609375"/><stop stop-opacity="1" stop-color="rgb(54.605103%, 35.05249%, 89.723206%)" offset="0.625"/><stop stop-opacity="1" stop-color="rgb(54.905701%, 35.334778%, 90.078735%)" offset="0.640625"/><stop stop-opacity="1" stop-color="rgb(55.204773%, 35.617065%, 90.434265%)" offset="0.65625"/><stop stop-opacity="1" stop-color="rgb(55.505371%, 35.897827%, 90.789795%)" offset="0.671875"/><stop stop-opacity="1" stop-color="rgb(55.805969%, 36.180115%, 91.145325%)" offset="0.6875"/><stop stop-opacity="1" stop-color="rgb(56.105042%, 36.462402%, 91.499329%)" offset="0.703125"/><stop stop-opacity="1" stop-color="rgb(56.40564%, 36.74469%, 91.854858%)" offset="0.71875"/><stop stop-opacity="1" stop-color="rgb(56.706238%, 37.025452%, 92.210388%)" offset="0.734375"/><stop stop-opacity="1" stop-color="rgb(57.006836%, 37.307739%, 92.565918%)" offset="0.75"/><stop stop-opacity="1" stop-color="rgb(57.305908%, 37.590027%, 92.921448%)" offset="0.765625"/><stop stop-opacity="1" stop-color="rgb(57.606506%, 37.870789%, 93.276978%)" offset="0.78125"/><stop stop-opacity="1" stop-color="rgb(57.907104%, 38.153076%, 93.632507%)" offset="0.796875"/><stop stop-opacity="1" stop-color="rgb(58.206177%, 38.435364%, 93.986511%)" offset="0.8125"/><stop stop-opacity="1" stop-color="rgb(58.506775%, 38.717651%, 94.342041%)" offset="0.828125"/><stop stop-opacity="1" stop-color="rgb(58.807373%, 38.998413%, 94.697571%)" offset="0.84375"/><stop stop-opacity="1" stop-color="rgb(59.107971%, 39.280701%, 95.053101%)" offset="0.859375"/><stop stop-opacity="1" stop-color="rgb(59.407043%, 39.562988%, 95.40863%)" offset="0.875"/><stop stop-opacity="1" stop-color="rgb(59.707642%, 39.845276%, 95.76416%)" offset="0.890625"/><stop stop-opacity="1" stop-color="rgb(60.00824%, 40.126038%, 96.11969%)" offset="0.90625"/><stop stop-opacity="1" stop-color="rgb(60.307312%, 40.408325%, 96.473694%)" offset="0.921875"/><stop stop-opacity="1" stop-color="rgb(60.60791%, 40.690613%, 96.829224%)" offset="0.9375"/><stop stop-opacity="1" stop-color="rgb(60.908508%, 40.971375%, 97.184753%)" offset="0.953125"/><stop stop-opacity="1" stop-color="rgb(61.207581%, 41.253662%, 97.540283%)" offset="0.96875"/><stop stop-opacity="1" stop-color="rgb(61.508179%, 41.53595%, 97.895813%)" offset="0.984375"/><stop stop-opacity="1" stop-color="rgb(61.808777%, 41.818237%, 98.251343%)" offset="1"/></linearGradient><clipPath id="42297bdd5e"><rect x="0" width="533" y="0" height="548"/></clipPath><clipPath id="47b4ef39f2"><path d="M 59.917969 201.132812 L 750 201.132812 L 750 534.132812 L 59.917969 534.132812 Z M 59.917969 201.132812 " clip-rule="nonzero"/></clipPath><clipPath id="24699003e7"><path d="M 0.917969 0.132812 L 691 0.132812 L 691 333 L 0.917969 333 Z M 0.917969 0.132812 " clip-rule="nonzero"/></clipPath><clipPath id="b2480a8e8b"><rect x="0" width="691" y="0" height="334"/></clipPath></defs><rect x="-75" width="900" fill="#ffffff" y="-74.999999" height="899.999994" fill-opacity="1"/><rect x="-75" width="900" fill="#ffffff" y="-74.999999" height="899.999994" fill-opacity="1"/><g clip-path="url(#1f4a52d203)"><g clip-path="url(#58c6df17b1)"><g transform="matrix(1, 0, 0, 1, 105, 101)"><g clip-path="url(#42297bdd5e)"><g clip-path="url(#07226bb6d0)"><g clip-path="url(#7addf29139)"><path fill="url(#e24014bfe7)" d="M 0.660156 0.910156 L 0.660156 546.835938 L 532.054688 546.835938 L 532.054688 0.910156 Z M 0.660156 0.910156 " fill-rule="nonzero"/></g></g></g></g></g></g><g clip-path="url(#47b4ef39f2)"><g transform="matrix(1, 0, 0, 1, 59, 201)"><g clip-path="url(#b2480a8e8b)"><g clip-path="url(#24699003e7)"><path fill="#ffffff" d="M 65.148438 215.859375 L 81.007812 225.375 L 150.804688 136.546875 L 184.117188 176.992188 L 311.011719 0.136719 L 385.5625 84.199219 L 415.699219 66.785156 L 517.222656 177.023438 L 571.117188 155.582031 L 713.113281 288.820312 L 567.582031 187.308594 L 511.699219 214.703125 C 511.699219 214.703125 510.898438 308.683594 510.898438 312.648438 C 510.898438 316.613281 414.082031 179.410156 414.082031 179.410156 L 414.082031 278.542969 L 315.398438 49.339844 L 124.363281 332.972656 L 166.761719 225.765625 L 133.746094 252.339844 L 146.972656 192.921875 L 85.773438 259.898438 L 64.351562 245.617188 L 0.910156 288.839844 Z M 65.148438 215.859375 " fill-opacity="1" fill-rule="evenodd"/><path fill="#ffffff" d="M 65.148438 215.859375 L 81.007812 225.375 L 150.804688 136.546875 L 184.117188 176.992188 L 311.011719 0.136719 L 385.5625 84.199219 L 415.699219 66.785156 L 517.222656 177.023438 L 571.117188 155.582031 L 713.113281 288.820312 L 567.582031 187.308594 L 511.699219 214.703125 C 511.699219 214.703125 510.898438 308.683594 510.898438 312.648438 C 510.898438 316.613281 414.082031 179.410156 414.082031 179.410156 L 414.082031 278.542969 L 315.398438 49.339844 L 124.363281 332.972656 L 166.761719 225.765625 L 133.746094 252.339844 L 146.972656 192.921875 L 85.773438 259.898438 L 64.351562 245.617188 L 0.910156 288.839844 Z M 65.148438 215.859375 " fill-opacity="1" fill-rule="evenodd"/></g></g></g></g></svg>